<svg width="1323" height="504" viewBox="0 0 1323 504" fill="none" xmlns="http://www.w3.org/2000/svg">
<g filter="url(#filter0_d_2_282)">
<path d="M380.646 185.663C379.452 183.108 377.214 181.192 374.505 180.409L134.43 110.999C128.451 109.27 122.403 113.499 121.971 119.71L107.581 327.055L457.977 351.222L380.646 185.663Z" fill="#686868"/>
<path d="M373.426 186.675L135.13 120.87L121.753 313.811L439.17 335.733L373.426 186.675Z" fill="#2B333F"/>
<path d="M457.977 351.222L107.581 327.055L195.656 396.91C206.521 405.527 220.086 410.015 233.944 409.575L542.202 399.795C545.588 399.688 546.579 395.124 543.543 393.619L457.977 351.222Z" fill="#393939"/>
<path d="M437.515 379.303C436.994 379.002 436.4 378.851 435.798 378.868L292.388 382.74C289.27 382.824 288.043 386.821 290.575 388.642L300.626 395.87C301.209 396.289 301.914 396.504 302.631 396.481L447.241 391.879C450.517 391.775 451.604 387.441 448.765 385.801L437.515 379.303Z" fill="#FF9B63"/>
</g>
<path d="M679.783 168.383C679.783 167.278 680.678 166.383 681.783 166.383H705.783C706.888 166.383 707.783 167.278 707.783 168.383V189.383C707.783 190.488 706.888 191.383 705.783 191.383H681.783C680.678 191.383 679.783 190.488 679.783 189.383V168.383Z" fill="#FF9B63"/>
<path d="M680.258 232.823C679.951 233.185 679.783 233.643 679.783 234.117V318.383C679.783 319.488 680.678 320.383 681.783 320.383H705.783C706.888 320.383 707.783 319.488 707.783 318.383V205.831C707.783 203.97 705.463 203.118 704.258 204.537L680.258 232.823Z" fill="#FF9B63"/>
<path d="M558.674 227.456C560.003 226.57 561.783 227.523 561.783 229.12V309.383C561.783 315.458 566.708 320.383 572.783 320.383H578.783C584.858 320.383 589.783 315.458 589.783 309.383V229.12C589.783 227.523 591.563 226.57 592.892 227.456L599.012 231.536C600.819 232.74 607.942 233.383 610.114 233.383H640.783C646.785 233.383 646.784 228.577 646.783 222.603V216.163C646.784 210.189 646.785 205.383 640.783 205.383H510.783C504.781 205.383 504.782 210.189 504.783 216.163V222.383C504.783 222.876 504.779 223.362 504.776 223.838C504.733 229.225 504.701 233.383 510.283 233.383H546.452C548.624 233.383 550.747 232.74 552.554 231.536L558.674 227.456Z" fill="#FF9B63"/>
<path d="M1222.09 232.823C1221.79 233.185 1221.62 233.643 1221.62 234.117V318.383C1221.62 319.488 1222.51 320.383 1223.62 320.383H1247.62C1248.72 320.383 1249.62 319.488 1249.62 318.383V271.952C1249.62 271.053 1250.71 270.611 1251.33 271.255L1295.35 316.594C1295.54 316.785 1295.78 316.885 1296.02 316.897C1296.14 316.902 1296.25 316.905 1296.36 316.92C1296.99 317.004 1297.66 316.802 1298.14 316.228L1322.14 287.943C1322.45 287.581 1322.62 287.123 1322.62 286.649L1322.62 202.383C1322.62 201.278 1321.72 200.383 1320.62 200.383H1296.62C1295.51 200.383 1294.62 201.278 1294.62 202.383L1294.62 272.17C1294.62 273.061 1293.54 273.507 1292.91 272.877L1249.91 229.877C1249.72 229.689 1249.62 229.435 1249.62 229.17V205.831C1249.62 203.97 1247.3 203.118 1246.09 204.537L1222.09 232.823Z" fill="#FF9B63"/>
<path d="M1155.77 234.117C1155.77 233.643 1155.94 233.185 1156.24 232.823L1180.24 204.537C1181.45 203.118 1183.77 203.97 1183.77 205.831V318.383C1183.77 319.488 1182.87 320.383 1181.77 320.383H1157.77C1156.66 320.383 1155.77 319.488 1155.77 318.383V234.117Z" fill="#FF9B63"/>
<path d="M1157.77 166.383C1156.66 166.383 1155.77 167.278 1155.77 168.383V189.383C1155.77 190.488 1156.66 191.383 1157.77 191.383H1181.77C1182.87 191.383 1183.77 190.488 1183.77 189.383V168.383C1183.77 167.278 1182.87 166.383 1181.77 166.383H1157.77Z" fill="#FF9B63"/>
<path d="M745.783 206.383C745.783 205.831 746.231 205.383 746.783 205.383H772.783C773.335 205.383 773.783 205.831 773.783 206.383V298.556C773.783 299.346 774.656 299.824 775.322 299.398L786.037 292.541C786.198 292.438 786.385 292.383 786.576 292.383H829.783C830.335 292.383 830.783 292.831 830.783 293.383V319.383C830.783 319.935 830.335 320.383 829.783 320.383H746.783C746.231 320.383 745.783 319.935 745.783 319.383V206.383Z" fill="#FF9B63"/>
<path d="M1037.77 206.383C1037.77 205.831 1038.21 205.383 1038.77 205.383H1121.77C1122.32 205.383 1122.77 205.831 1122.77 206.383V232.383C1122.77 232.935 1122.32 233.383 1121.77 233.383H1078.56C1078.37 233.383 1078.18 233.328 1078.02 233.225L1067.31 226.368C1066.64 225.942 1065.77 226.42 1065.77 227.21V298.556C1065.77 299.346 1066.64 299.824 1067.31 299.398L1078.02 292.541C1078.18 292.438 1078.37 292.383 1078.56 292.383H1121.77C1122.32 292.383 1122.77 292.831 1122.77 293.383V319.383C1122.77 319.935 1122.32 320.383 1121.77 320.383H1038.77C1038.21 320.383 1037.77 319.935 1037.77 319.383V206.383Z" fill="#FF9B63"/>
<path fill-rule="evenodd" clip-rule="evenodd" d="M960.713 203.694C960.569 203.3 960.194 203.038 959.774 203.039L933.475 203.053C933.471 203.053 933.468 203.049 933.47 203.046V203.046C933.471 203.042 933.468 203.038 933.464 203.038H906.154C905.743 203.038 905.374 203.29 905.223 203.672L860.009 318.672C859.752 319.328 860.235 320.038 860.94 320.038H887.786C888.199 320.038 888.57 319.783 888.719 319.397L898.611 293.679C898.759 293.293 899.13 293.038 899.544 293.038H965.066C965.488 293.038 965.865 293.303 966.007 293.7L975.235 319.376C975.377 319.773 975.754 320.038 976.176 320.038H1002.04C1002.73 320.038 1003.22 319.346 1002.98 318.693L960.713 203.694ZM954.286 265.038C954.978 265.038 955.461 264.351 955.227 263.7L934.358 205.629C934.045 204.757 932.816 204.744 932.484 205.608L906.19 273.971C905.844 274.873 906.85 275.693 907.663 275.172L923.226 265.196C923.387 265.093 923.574 265.038 923.765 265.038H954.286Z" fill="#FF9B63"/>
<path d="M776.692 391.383L769.204 368.983H772.5L779.38 389.655H777.716L784.852 368.983H787.796L794.772 389.655H793.172L800.148 368.983H803.188L795.7 391.383H792.34L785.812 372.215H786.676L780.116 391.383H776.692ZM826.494 378.647H838.014V381.367H826.494V378.647ZM826.782 388.599H839.838V391.383H823.582V368.983H839.39V371.767H826.782V388.599ZM861.5 391.383V368.983H871.548C874.129 368.983 876.113 369.506 877.5 370.551C878.886 371.575 879.58 372.983 879.58 374.775C879.58 375.991 879.302 377.015 878.748 377.847C878.214 378.679 877.489 379.319 876.572 379.767C875.654 380.215 874.662 380.439 873.596 380.439L874.172 379.479C875.452 379.479 876.582 379.703 877.564 380.151C878.545 380.599 879.324 381.26 879.9 382.135C880.476 382.988 880.764 384.055 880.764 385.335C880.764 387.255 880.038 388.748 878.588 389.815C877.158 390.86 875.025 391.383 872.188 391.383H861.5ZM864.7 388.791H872.06C873.83 388.791 875.185 388.492 876.124 387.895C877.062 387.298 877.532 386.359 877.532 385.079C877.532 383.778 877.062 382.828 876.124 382.231C875.185 381.634 873.83 381.335 872.06 381.335H864.412V378.743H871.26C872.881 378.743 874.14 378.444 875.036 377.847C875.932 377.25 876.38 376.354 876.38 375.159C876.38 373.964 875.932 373.068 875.036 372.471C874.14 371.874 872.881 371.575 871.26 371.575H864.7V388.791ZM927.272 391.383V368.983H936.008C937.971 368.983 939.646 369.292 941.032 369.911C942.419 370.53 943.486 371.426 944.232 372.599C944.979 373.772 945.352 375.17 945.352 376.791C945.352 378.412 944.979 379.81 944.232 380.983C943.486 382.135 942.419 383.031 941.032 383.671C939.646 384.29 937.971 384.599 936.008 384.599H929.032L930.472 383.095V391.383H927.272ZM930.472 383.415L929.032 381.815H935.912C937.96 381.815 939.507 381.378 940.552 380.503C941.619 379.628 942.152 378.391 942.152 376.791C942.152 375.191 941.619 373.954 940.552 373.079C939.507 372.204 937.96 371.767 935.912 371.767H929.032L930.472 370.167V383.415ZM966.533 391.383V368.983H975.269C977.232 368.983 978.907 369.292 980.293 369.911C981.68 370.53 982.747 371.426 983.493 372.599C984.24 373.772 984.613 375.17 984.613 376.791C984.613 378.412 984.24 379.81 983.493 380.983C982.747 382.135 981.68 383.02 980.293 383.639C978.907 384.258 977.232 384.567 975.269 384.567H968.293L969.733 383.095V391.383H966.533ZM981.509 391.383L975.813 383.255H979.237L984.997 391.383H981.509ZM969.733 383.415L968.293 381.847H975.173C977.221 381.847 978.768 381.41 979.813 380.535C980.88 379.639 981.413 378.391 981.413 376.791C981.413 375.191 980.88 373.954 979.813 373.079C978.768 372.204 977.221 371.767 975.173 371.767H968.293L969.733 370.167V383.415ZM1016.38 391.639C1014.67 391.639 1013.08 391.351 1011.61 390.775C1010.16 390.199 1008.9 389.399 1007.83 388.375C1006.76 387.33 1005.93 386.114 1005.34 384.727C1004.74 383.34 1004.44 381.826 1004.44 380.183C1004.44 378.54 1004.74 377.026 1005.34 375.639C1005.93 374.252 1006.76 373.047 1007.83 372.023C1008.9 370.978 1010.16 370.167 1011.61 369.591C1013.06 369.015 1014.65 368.727 1016.38 368.727C1018.08 368.727 1019.65 369.015 1021.08 369.591C1022.53 370.146 1023.79 370.946 1024.86 371.991C1025.94 373.015 1026.78 374.22 1027.35 375.607C1027.95 376.994 1028.25 378.519 1028.25 380.183C1028.25 381.847 1027.95 383.372 1027.35 384.759C1026.78 386.146 1025.94 387.362 1024.86 388.407C1023.79 389.431 1022.53 390.231 1021.08 390.807C1019.65 391.362 1018.08 391.639 1016.38 391.639ZM1016.38 388.791C1017.61 388.791 1018.75 388.578 1019.8 388.151C1020.87 387.724 1021.78 387.127 1022.55 386.359C1023.34 385.57 1023.95 384.652 1024.38 383.607C1024.82 382.562 1025.05 381.42 1025.05 380.183C1025.05 378.946 1024.82 377.804 1024.38 376.759C1023.95 375.714 1023.34 374.807 1022.55 374.039C1021.78 373.25 1020.87 372.642 1019.8 372.215C1018.75 371.788 1017.61 371.575 1016.38 371.575C1015.12 371.575 1013.95 371.788 1012.89 372.215C1011.84 372.642 1010.92 373.25 1010.14 374.039C1009.35 374.807 1008.73 375.714 1008.28 376.759C1007.85 377.804 1007.64 378.946 1007.64 380.183C1007.64 381.42 1007.85 382.562 1008.28 383.607C1008.73 384.652 1009.35 385.57 1010.14 386.359C1010.92 387.127 1011.84 387.724 1012.89 388.151C1013.95 388.578 1015.12 388.791 1016.38 388.791ZM1059.73 391.639C1058 391.639 1056.41 391.362 1054.96 390.807C1053.51 390.231 1052.25 389.431 1051.19 388.407C1050.12 387.362 1049.29 386.146 1048.69 384.759C1048.09 383.372 1047.79 381.847 1047.79 380.183C1047.79 378.519 1048.09 376.994 1048.69 375.607C1049.29 374.22 1050.12 373.015 1051.19 371.991C1052.27 370.946 1053.54 370.146 1054.99 369.591C1056.45 369.015 1058.05 368.727 1059.79 368.727C1061.57 368.727 1063.19 369.015 1064.66 369.591C1066.13 370.167 1067.38 371.031 1068.4 372.183L1066.42 374.167C1065.5 373.271 1064.5 372.62 1063.41 372.215C1062.34 371.788 1061.18 371.575 1059.92 371.575C1058.64 371.575 1057.45 371.788 1056.34 372.215C1055.25 372.642 1054.3 373.239 1053.49 374.007C1052.7 374.775 1052.08 375.692 1051.63 376.759C1051.21 377.804 1050.99 378.946 1050.99 380.183C1050.99 381.399 1051.21 382.54 1051.63 383.607C1052.08 384.652 1052.7 385.57 1053.49 386.359C1054.3 387.127 1055.25 387.724 1056.34 388.151C1057.43 388.578 1058.61 388.791 1059.89 388.791C1061.09 388.791 1062.23 388.61 1063.31 388.247C1064.42 387.863 1065.45 387.234 1066.39 386.359L1068.21 388.791C1067.1 389.73 1065.8 390.444 1064.31 390.935C1062.83 391.404 1061.31 391.639 1059.73 391.639ZM1065.14 388.375V380.055H1068.21V388.791L1065.14 388.375ZM1090.82 391.383V368.983H1099.55C1101.52 368.983 1103.19 369.292 1104.58 369.911C1105.96 370.53 1107.03 371.426 1107.78 372.599C1108.52 373.772 1108.9 375.17 1108.9 376.791C1108.9 378.412 1108.52 379.81 1107.78 380.983C1107.03 382.135 1105.96 383.02 1104.58 383.639C1103.19 384.258 1101.52 384.567 1099.55 384.567H1092.58L1094.02 383.095V391.383H1090.82ZM1105.79 391.383L1100.1 383.255H1103.52L1109.28 391.383H1105.79ZM1094.02 383.415L1092.58 381.847H1099.46C1101.51 381.847 1103.05 381.41 1104.1 380.535C1105.16 379.639 1105.7 378.391 1105.7 376.791C1105.7 375.191 1105.16 373.954 1104.1 373.079C1103.05 372.204 1101.51 371.767 1099.46 371.767H1092.58L1094.02 370.167V383.415ZM1127.16 391.383L1137.3 368.983H1140.47L1150.64 391.383H1147.28L1138.23 370.775H1139.51L1130.45 391.383H1127.16ZM1131.48 385.783L1132.34 383.223H1144.95L1145.88 385.783H1131.48ZM1170.46 391.383V368.983H1173.09L1183.14 385.911H1181.73L1191.65 368.983H1194.27L1194.3 391.383H1191.23L1191.2 373.815H1191.94L1183.1 388.663H1181.63L1172.74 373.815H1173.54V391.383H1170.46ZM1217.51 391.383V368.983H1220.13L1230.18 385.911H1228.77L1238.69 368.983H1241.32L1241.35 391.383H1238.28L1238.24 373.815H1238.98L1230.15 388.663H1228.68L1219.78 373.815H1220.58V391.383H1217.51ZM1267.46 378.647H1278.98V381.367H1267.46V378.647ZM1267.75 388.599H1280.81V391.383H1264.55V368.983H1280.36V371.767H1267.75V388.599ZM1302.47 391.383V368.983H1311.2C1313.17 368.983 1314.84 369.292 1316.23 369.911C1317.61 370.53 1318.68 371.426 1319.43 372.599C1320.17 373.772 1320.55 375.17 1320.55 376.791C1320.55 378.412 1320.17 379.81 1319.43 380.983C1318.68 382.135 1317.61 383.02 1316.23 383.639C1314.84 384.258 1313.17 384.567 1311.2 384.567H1304.23L1305.67 383.095V391.383H1302.47ZM1317.44 391.383L1311.75 383.255H1315.17L1320.93 391.383H1317.44ZM1305.67 383.415L1304.23 381.847H1311.11C1313.16 381.847 1314.7 381.41 1315.75 380.535C1316.81 379.639 1317.35 378.391 1317.35 376.791C1317.35 375.191 1316.81 373.954 1315.75 373.079C1314.7 372.204 1313.16 371.767 1311.11 371.767H1304.23L1305.67 370.167V383.415Z" fill="#92786A"/>
<g style="mix-blend-mode:color-dodge" filter="url(#filter1_f_2_282)">
<path d="M134.85 121.383L374.352 186.383L440.768 336.383L121.768 314.383L134.85 121.383Z" fill="#2B333F"/>
</g>
<g style="mix-blend-mode:screen" filter="url(#filter2_f_2_282)">
<path d="M134.85 121.383L374.352 186.383L440.768 336.383L121.768 314.383L134.85 121.383Z" fill="#2B333F"/>
</g>
<defs>
<filter id="filter0_d_2_282" x="103.581" y="110.61" width="445.779" height="306.995" filterUnits="userSpaceOnUse" color-interpolation-filters="sRGB">
<feFlood flood-opacity="0" result="BackgroundImageFix"/>
<feColorMatrix in="SourceAlpha" type="matrix" values="0 0 0 0 0 0 0 0 0 0 0 0 0 0 0 0 0 0 127 0" result="hardAlpha"/>
<feOffset dy="4"/>
<feGaussianBlur stdDeviation="2"/>
<feComposite in2="hardAlpha" operator="out"/>
<feColorMatrix type="matrix" values="0 0 0 0 0 0 0 0 0 0 0 0 0 0 0 0 0 0 0.25 0"/>
<feBlend mode="normal" in2="BackgroundImageFix" result="effect1_dropShadow_2_282"/>
<feBlend mode="normal" in="SourceGraphic" in2="effect1_dropShadow_2_282" result="shape"/>
</filter>
<filter id="filter1_f_2_282" x="0.768433" y="0.382965" width="561" height="457" filterUnits="userSpaceOnUse" color-interpolation-filters="sRGB">
<feFlood flood-opacity="0" result="BackgroundImageFix"/>
<feBlend mode="normal" in="SourceGraphic" in2="BackgroundImageFix" result="shape"/>
<feGaussianBlur stdDeviation="60.5" result="effect1_foregroundBlur_2_282"/>
</filter>
<filter id="filter2_f_2_282" x="0.768433" y="0.382965" width="561" height="457" filterUnits="userSpaceOnUse" color-interpolation-filters="sRGB">
<feFlood flood-opacity="0" result="BackgroundImageFix"/>
<feBlend mode="normal" in="SourceGraphic" in2="BackgroundImageFix" result="shape"/>
<feGaussianBlur stdDeviation="60.5" result="effect1_foregroundBlur_2_282"/>
</filter>
</defs>
</svg>
